<?xml version="1.0"?><svg data-name="filled outline" id="filled_outline" viewBox="0 0 512 512" xmlns="http://www.w3.org/2000/svg"><title/><path d="M260.17,53.464c-2.33,16.46-19.65,41.59-40.98,73.67-36.71,55.27-85.28,131.18-89.53,219.09,3.18,1.55,6.38,3.07,9.57,4.57l.21-.45c13.66-71.2,72.01-122.567,124.56-170.3,10.73-9.75,60.4-44.073,76.167-54.833l-1.577-20.47C348.72,44.214,266.53,8.634,260.17,53.464Z" style="fill:#567cc1"/><path d="M394.59,350.744h-.02c-8.632,0-26.9-4.753-54.862-2.42-40.258,3.36-93.625,20.464-127.405,31.884l-6.428,4.943c40.36,15.78,85.955,26.343,111.975,37.753a614.669,614.669,0,0,0,115.89,30.11c9.18,1.41,18.6,2.61,28.15,3.5,9.91.93,26.34,6.17,39.79-1.68S479.72,354.214,394.59,350.744Z" style="fill:#72a9ce"/><path d="M434.71,180.854a43.669,43.669,0,0,1-.6-33.61c8.25-20.55,5-55.69-11.61-73.48a25.329,25.329,0,0,0-31.87-3.92c-11.78,7.35-30.27,18.66-52.04,33.51-15.77,10.76-33.26,23.38-51.17,37.7-10.71,8.57-21.57,17.74-32.3,27.49-52.55,47.73-102.02,109.21-115.68,180.41l-.21.45c25.55,12,46.265,25.13,70.616,34.64,33.78-11.42,88.944-25.66,129.054-30.48q5-.6,9.77-1.07c9.45-.94,18.18-1.5,25.81-1.59,7.54-.08,14.22-.36,20.09-1.55h.02c10.75-2.16,18.76-7.37,24.29-20.02,6.47-14.79,14.42-34.1,22.75-56.87C454.32,237.784,444.02,202.294,434.71,180.854Z" style="fill:#72a9ce"/><path d="M318.444,418.824c-25.264-13-64.955-17.719-103.6-37.32C143.5,345.324,143,326.362,93.875,302.2c-17.261-8.49-42.372,6.506-42.157,25.125.335,29,57.282,76.2,143.994,123,75.236,40.6,126.886,37.392,140.788,11C343.611,447.824,339.454,429.634,318.444,418.824Z" style="fill:#564c7f"/><path d="M507.446,434.661c-3.559-14.313-14.29-36.407-33.73-55.494-12.909-12.675-33.518-27.631-62.189-32.914,4.533-3.544,8.4-8.534,11.479-15.588,7.985-18.28,15.676-37.5,22.855-57.129,12.924-35.336,3.316-71.137-7.021-94.948a39.356,39.356,0,0,1-.549-30.136c8.607-21.448,5.59-58.85-12.5-78.229a29.828,29.828,0,0,0-37.538-4.671l-4.327,2.691c-10.412,6.469-24.2,15.035-40.014,25.6.31-20.135-8.8-39.376-25.432-52.859-15.328-12.422-33.656-17.138-46.7-12.013-8.841,3.474-14.546,11.285-16.064,21.993C253.677,65.353,238.606,88,219.527,116.673,185.8,167.354,140,236.194,127.846,316.837c-5.061-3.674-10.571-7.353-16.963-11.1.648-3.6,1.265-7.212,1.783-10.84.7-4.6,1.246-9.224,1.683-13.863a222.452,222.452,0,0,0,.879-27.986,165.369,165.369,0,0,0-3.26-27.964,123.41,123.41,0,0,0-8.838-26.983A87.555,87.555,0,0,0,87,174.274a64.324,64.324,0,0,0-11.333-9.415,45.8,45.8,0,0,0-13.9-6.178,30.365,30.365,0,0,0-8.041-.916,21.507,21.507,0,0,0-8.571,1.913,21.969,21.969,0,0,0-3.892,2.4,18.961,18.961,0,0,0-3.27,3.272,17.959,17.959,0,0,0-2.4,4.052,17.762,17.762,0,0,0-1.352,4.575,18.781,18.781,0,0,0,1.041,9.583,19.543,19.543,0,0,0,2.393,4.326,21.487,21.487,0,0,0,3.407,3.561,20.989,20.989,0,0,0,4.065,2.6,24.556,24.556,0,0,0,4.353,1.7,35.212,35.212,0,0,0,8.755,1.279l.514.018a7.4,7.4,0,1,0-1.621-14.569c-3.405.863-6.685.645-8.985-.656a6.834,6.834,0,0,1-3.567-6.531,8.486,8.486,0,0,1,4.742-6.884c2.634-1.329,6.522-1.434,10.3-.57a36.606,36.606,0,0,1,11.161,4.733,54.751,54.751,0,0,1,9.9,7.91,78.989,78.989,0,0,1,14.765,21.285,110.5,110.5,0,0,1,8.389,25.041,147.535,147.535,0,0,1,3.11,26.523,193.506,193.506,0,0,1-1.084,26.869c-.725,7.03-1.812,14.031-3.165,20.986q-2.4-1.274-4.963-2.561a116.446,116.446,0,0,0,2.8-20.476,86.33,86.33,0,0,0-2.413-24.616A71.091,71.091,0,0,0,87.872,230.8,73.406,73.406,0,0,0,70.356,213.06a78.749,78.749,0,0,0-22.283-11.119,67.037,67.037,0,0,0-12.366-2.654,42.8,42.8,0,0,0-13.233.372,26.649,26.649,0,0,0-6.773,2.41,25.622,25.622,0,0,0-5.994,4.138A20.482,20.482,0,0,0,5.048,212.6a17.639,17.639,0,0,0-1.524,8.3,18.45,18.45,0,0,0,8.634,14.309,21.706,21.706,0,0,0,7.836,3.066,28.174,28.174,0,0,0,8.072.286l.71-.07a7.406,7.406,0,1,0-3.509-14.251,9.445,9.445,0,0,1-6.963.236,6.788,6.788,0,0,1-2.56-1.821,6.261,6.261,0,0,1-1.33-2.784,7.429,7.429,0,0,1,2.31-6.451,15.659,15.659,0,0,1,3.566-2.7,14.668,14.668,0,0,1,4.242-1.682,33.627,33.627,0,0,1,10.238-.491,58.028,58.028,0,0,1,10.712,2.027,67.535,67.535,0,0,1,19.913,9.5,65.045,65.045,0,0,1,8.522,7.046,63.035,63.035,0,0,1,7.109,8.431,60.219,60.219,0,0,1,9.079,20.014,72.98,72.98,0,0,1,1.94,22.171,97.813,97.813,0,0,1-2.679,17.742c-8.406-1.776-17.96.056-26.278,5.3C53.035,307.119,47.1,316.885,47.219,326.9c.18,15.622,14.041,35.206,41.2,58.208,25.43,21.54,61.794,45.3,105.159,68.7,37.826,20.415,72.849,31.219,99.9,31.219a76.243,76.243,0,0,0,22.165-2.983c11.515-3.506,20.105-10.11,24.839-19.1a31.714,31.714,0,0,0,2.245-24.485,33.9,33.9,0,0,0-1.889-4.686c26.218,8.3,71.868,20.813,120.638,25.357,1.891.176,4.163.542,6.568.929a100.343,100.343,0,0,0,16.1,1.657c6.54,0,13.408-1.133,19.8-4.861C509.1,453.852,510.311,446.176,507.446,434.661ZM388.674,75.887l4.337-2.7a20.813,20.813,0,0,1,26.2,3.174c15.335,16.428,18.312,49.838,10.728,68.736a48.416,48.416,0,0,0,.645,37.072c9.684,22.306,18.729,55.727,6.824,88.272-7.116,19.457-14.737,38.506-22.65,56.618-4.692,10.741-10.988,15.363-20.741,17.365a4.379,4.379,0,0,0-.652.133c-5.24,1-11.459,1.285-18.935,1.375-42.723.513-116.154,15.928-159.218,30.232-34.943-17.87-52.52-31.574-67.411-43.649C183.657,203.291,337.778,107.51,388.674,75.887ZM227.021,121.659c19.71-29.623,35.28-53.021,37.607-69.429,1.074-7.572,4.589-12.579,10.446-14.881,9.917-3.9,25.083.375,37.737,10.629,16.247,13.168,24.241,32.592,21.622,52.283a775.626,775.626,0,0,0-79.91,62.3C194.92,216.137,156.5,271.2,140.2,326.351q-2.044-1.645-4.12-3.279C146.76,242.316,193.084,172.657,227.021,121.659Zm105.5,337.1c-3.641,6.913-10.2,11.852-19.5,14.683-26.054,7.934-68.034-2.107-115.17-27.546C112.113,399.62,56.52,352.874,56.219,326.8c-.08-6.867,4.283-13.749,11.67-18.407a28.572,28.572,0,0,1,15.058-4.6,20.916,20.916,0,0,1,6.949,1.143,4.479,4.479,0,0,0,1.549.716c.089.022.178.021.267.037.059.028.119.052.177.08,22.118,10.879,33.955,20.5,47.661,31.647,16.062,13.06,34.269,27.862,73.255,47.633l.022.011.014.007C234.413,396,256.291,402.376,275.6,408c15.976,4.658,29.774,8.681,40.79,14.349,9.233,4.751,15.374,11.257,17.757,18.816A22.788,22.788,0,0,1,332.519,458.754Zm166.794-9.613c-9.271,5.35-20.671,3.513-29.838,2.037-2.559-.412-4.975-.8-7.165-1-57.587-5.366-110.829-22.059-131.831-29.286a54.292,54.292,0,0,0-9.976-6.537c-11.783-6.063-26.649-10.4-42.389-14.986-15.861-4.624-33.494-9.776-51.047-17.532,43.038-13.2,108.423-26.429,147.47-26.9a117.31,117.31,0,0,0,20.145-1.536c52.017,2.252,86.295,39.8,99.852,71.329C500.949,439.642,500.286,447.851,499.313,449.141Z" style="fill:#60373f"/><path d="M82.322,318.371,78.1,316.485a4.945,4.945,0,0,0-6.276,7.026,5.087,5.087,0,0,0,6.532,1.885l4.189-1.942a2.752,2.752,0,0,0,1.313-1.288A2.908,2.908,0,0,0,82.322,318.371Z" style="fill:#60373f"/></svg>