<?xml version="1.0"?><svg data-name="Layer 1" id="Layer_1" viewBox="0 0 32 32" xmlns="http://www.w3.org/2000/svg"><title/><path d="M24.79,13.02a.9055.9055,0,0,0,.26-.13.95.95,0,0,1-.17.1Z" style="fill:#6eafff"/><path d="M25.4058,15.1,16,19.7157,6.5942,15.1a1,1,0,0,0-.8808,1.7959L15.56,21.7278c.0149.0073.0313.0042.0464.0108a.9967.9967,0,0,0,.39.09l.0028.0007h.002l.0028-.0007a.9967.9967,0,0,0,.39-.09c.0151-.0066.0315-.0035.0464-.0108l9.8462-4.8316A1,1,0,0,0,25.4058,15.1Z" style="fill:#8cc73f"/><path d="M25.4058,19.6023,16,24.2177,6.5942,19.6023a1,1,0,0,0-.8808,1.7959L15.56,26.23c.0149.0073.0313.0043.0464.0108a.9985.9985,0,0,0,.39.0906l.0028.0007.001,0,.001,0,.0028-.0007a.9985.9985,0,0,0,.39-.0906c.0151-.0065.0315-.0035.0464-.0108l9.8462-4.8315a1,1,0,0,0-.8808-1.7959Z" style="fill:#4eb03d"/><path d="M5.2551,11.9382c.01.01.01.02.02.03a.2552.2552,0,0,0,.08.12.6849.6849,0,0,0,.11.13.6214.6214,0,0,0,.19.14.2088.2088,0,0,0,.06.04l9.84,4.83a.6356.6356,0,0,0,.18.06.7453.7453,0,0,0,.26.04h.01a.7449.7449,0,0,0,.26-.04.6356.6356,0,0,0,.18-.06l9.84-4.83c.01-.01.03-.02.04-.03a.6443.6443,0,0,0,.19-.13.01.01,0,0,0,.01-.01.5507.5507,0,0,0,.15-.19c.02-.01.02-.02.03-.03a.43.43,0,0,0,.04-.07.4944.4944,0,0,0,.06-.17.9312.9312,0,0,0,0-.54.6422.6422,0,0,0-.1-.24.0536.0536,0,0,0-.03-.04.4848.4848,0,0,0-.13-.16.6475.6475,0,0,0-.09-.08.4156.4156,0,0,0-.14-.09c-.01-.01-.02-.01-.03-.02l-9.83-4.82-.01-.01a.6388.6388,0,0,0-.18-.06.7473.7473,0,0,0-.26-.04h-.01a.7476.7476,0,0,0-.26.04,1.0662,1.0662,0,0,0-.19.07l-9.83,4.82c-.01.01-.02.01-.03.02a.4156.4156,0,0,0-.14.09.577.577,0,0,0-.18.18.4207.4207,0,0,0-.09.14.7011.7011,0,0,0-.08.2.9335.9335,0,0,0,0,.54A.4944.4944,0,0,0,5.2551,11.9382Z" style="fill:#ffda67"/></svg>