<?xml version="1.0"?><!DOCTYPE svg  PUBLIC '-//W3C//DTD SVG 1.1//EN'  'http://www.w3.org/Graphics/SVG/1.1/DTD/svg11.dtd'><svg enable-background="new 0 0 512 512" id="Layer_1" version="1.1" viewBox="0 0 512 512" xml:space="preserve" xmlns="http://www.w3.org/2000/svg" xmlns:xlink="http://www.w3.org/1999/xlink"><g><g><circle cx="256" cy="256" fill="#41B3E2" r="254"/></g><g><path d="M510,256c0,2.6-0.1,5.3-0.2,7.9c-4.1-136.7-116.2-246-253.8-246C118.3,17.9,6.3,127.3,2.2,264    C2.1,261.4,2,258.7,2,256C2,115.7,115.7,2,256,2C396.3,2,510,115.7,510,256z" fill="#55CDF2"/></g><g><path d="M463,256c0,38-10.3,73.7-28.3,104.4c-48.9-39.5-111.1-62.9-178.8-62.9s-129.8,23.5-178.8,62.9    C59.3,329.8,49,294.1,49,256c0-114.1,92.9-207,207-207C370.1,49,463,141.9,463,256z" fill="#EFF3F5"/></g><g><path d="M463,256c0,2.4-0.1,4.8-0.2,7.1C458.2,153,367.2,64.8,256,64.8c-111.7,0-203.1,89-206.9,199.8    c-0.1-2.9-0.2-5.7-0.2-8.6C48.9,141.9,141.9,49,256,49C370.1,49,463,141.9,463,256z" fill="#FDFEFF"/></g><g><polygon fill="#F1786B" points="284.9,388.9 227.1,388.9 256,168.3   "/></g><g><path d="M277.3,331c-14-4.2-28.8-4.1-42.6,0l-7.6,57.9h57.8L277.3,331z" fill="#D45947"/></g><g><circle cx="256" cy="402.8" fill="#FBD984" r="60.2"/></g><g><circle cx="256" cy="402.8" fill="#F1786B" r="28.9"/></g><g><path d="M256,76.8c-95.4,0-173.7,75-178.9,169.2c-0.3,5.4,3.9,10,9.3,10h0c4.9,0,9.2-3.8,9.4-8.7    c2-37.4,17-71.4,40.5-97.7l14.3,14.3c3.7,3.7,9.6,3.7,13.3,0c3.7-3.7,3.7-9.6,0-13.3l-14.3-14.3c26.2-23.3,59.9-38.1,97-40.2v20.2    c0,5.2,4.2,9.4,9.4,9.4h0c5.2,0,9.4-4.2,9.4-9.4V96.1c37.1,2.2,70.9,17,97,40.2l-14.3,14.3c-3.7,3.7-3.7,9.6,0,13.3    c3.7,3.7,9.6,3.7,13.3,0l14.3-14.3c23.4,26.3,38.4,60.3,40.5,97.7c0.3,4.9,4.5,8.7,9.4,8.7h0c5.4,0,9.6-4.6,9.3-10    C429.7,151.8,351.4,76.8,256,76.8z" fill="#445C6C"/></g></g></svg>